<?xml version="1.0" encoding="utf-8"?>
<!-- Generator: Adobe Illustrator 16.0.0, SVG Export Plug-In . SVG Version: 6.00 Build 0)  -->
<!DOCTYPE svg PUBLIC "-//W3C//DTD SVG 1.1//EN" "http://www.w3.org/Graphics/SVG/1.1/DTD/svg11.dtd">
<svg version="1.1" id="Layer_1" xmlns="http://www.w3.org/2000/svg" xmlns:xlink="http://www.w3.org/1999/xlink" x="0px" y="0px"
	 width="72.585px" height="72.583px" viewBox="0 0 72.585 72.583" enable-background="new 0 0 72.585 72.583" xml:space="preserve">
<g id="Captions" display="none">
	<rect x="-127.963" y="-2.593" display="inline" width="137.037" height="73.333"/>
	<rect x="14.259" y="-29.259" display="inline" width="74.075" height="22.222"/>
	<text transform="matrix(1 0 0 1 63.1479 -17.0371)" display="inline" font-family="'Helvetica'" font-size="1.7778">http://thenounproject.com</text>
	<text transform="matrix(1 0 0 1 19.5674 -20.7402)" display="inline" font-family="'Helvetica-Bold'" font-size="4.5613">The Noun Project</text>
	<text transform="matrix(1 0 0 1 20.3975 -17.1855)" display="inline" font-family="'Helvetica-Bold'" font-size="2.963">Icon Template</text>
	<text transform="matrix(1 0 0 1 -117.9629 5.1855)" display="inline" font-family="'Helvetica-Bold'" font-size="4.5613">Reminders</text>
	<line display="inline" fill="none" stroke="#FFFFFF" stroke-miterlimit="10" x1="20.185" y1="-13.333" x2="27.593" y2="-13.333"/>
	<line display="inline" fill="none" stroke="#FFFFFF" stroke-miterlimit="10" x1="-118.333" y1="9.63" x2="-105.741" y2="9.63"/>
	<g display="inline">
		<g>
			<g>
				<rect x="-112.261" y="20.606" width="6.46" height="6.401"/>
				<path d="M-107.559,28.75h3.516v-3.483h-3.516V28.75z M-103.715,29.073h-4.17v-4.132h4.17V29.073L-103.715,29.073z
					 M-108.867,30.046h6.132V23.97h-6.132V30.046L-108.867,30.046z M-102.407,30.37h-6.788v-6.725h6.788V30.37L-102.407,30.37z"/>
				<polygon points="-108.814,30.099 -108.92,29.993 -102.788,23.917 -102.682,24.021 				"/>
			</g>
		</g>
	</g>
	<rect x="-118.333" y="40.37" display="inline" fill="none" width="25.926" height="24.074"/>
	<text transform="matrix(1 0 0 1 -118.334 41.9692)" display="inline" font-family="'Helvetica-Bold'" font-size="2.2222">Strokes</text>
	<text transform="matrix(1 0 0 1 -118.334 45.6724)" display="inline" font-family="'Helvetica'" font-size="1.7778">Try to keep strokes at 4px</text>
	<text transform="matrix(1 0 0 1 -118.334 49.3755)" display="inline" font-family="'Helvetica'" font-size="1.7778">Minimum stroke weight is 2px</text>
	<text transform="matrix(1 0 0 1 -118.334 52.7095)" display="inline" font-family="'Helvetica'" font-size="1.7778">For thicker strokes use even </text>
	<text transform="matrix(1 0 0 1 -118.334 54.9321)" display="inline" font-family="'Helvetica'" font-size="1.7778">numbers: 6px, 8px etc.</text>
	<text transform="matrix(1 0 0 1 -118.334 58.2642)" display="inline" font-family="'Helvetica-Bold'" font-size="1.7778">Remember to expand strokes </text>
	<text transform="matrix(1 0 0 1 -118.334 60.4868)" display="inline" font-family="'Helvetica-Bold'" font-size="1.7778">before saving as an SVG </text>
	<rect x="-86.852" y="40.37" display="inline" fill="none" width="25.926" height="24.074"/>
	<text transform="matrix(1 0 0 1 -86.8525 41.9692)" display="inline" font-family="'Helvetica-Bold'" font-size="2.2222">Size</text>
	<text transform="matrix(1 0 0 1 -86.8525 45.6724)" display="inline" font-family="'Helvetica'" font-size="1.7778">Cannot be wider or taller than </text>
	<text transform="matrix(1 0 0 1 -86.8525 48.2642)" display="inline" font-family="'Helvetica'" font-size="1.7778">100px (artboard size)</text>
	<text transform="matrix(1 0 0 1 -86.8525 51.9692)" display="inline" font-family="'Helvetica'" font-size="1.7778">Scale your icon to fill as much of </text>
	<text transform="matrix(1 0 0 1 -86.8525 54.1899)" display="inline" font-family="'Helvetica'" font-size="1.7778">the artboard as possible</text>
	<rect x="-55.37" y="40.37" display="inline" fill="none" width="25.926" height="24.074"/>
	<text transform="matrix(1 0 0 1 -55.3711 41.9692)" display="inline" font-family="'Helvetica-Bold'" font-size="2.2222">Ungroup</text>
	<text transform="matrix(1 0 0 1 -55.3711 45.6724)" display="inline" font-family="'Helvetica'" font-size="1.7778">If your design has more than one </text>
	<text transform="matrix(1 0 0 1 -55.3711 47.8931)" display="inline" font-family="'Helvetica'" font-size="1.7778">shape, make sure to ungroup</text>
	<rect x="-22.778" y="40.37" display="inline" fill="none" width="25.926" height="24.074"/>
	<text transform="matrix(1 0 0 1 -22.7773 41.9692)" display="inline" font-family="'Helvetica-Bold'" font-size="2.2222">Save as</text>
	<text transform="matrix(1 0 0 1 -22.7773 45.6724)" display="inline" font-family="'Helvetica'" font-size="1.7778">Save as .SVG and make sure </text>
	<text transform="matrix(1 0 0 1 -22.7773 47.8931)" display="inline" font-family="'Helvetica'" font-size="1.7778">“Use Artboards” is checked</text>
	<text transform="matrix(1.0074 0 0 1 -78.7354 20.0693)" display="inline" font-family="'Helvetica'" font-size="1.906">100px</text>
	<text transform="matrix(1.0074 0 0 1 -16.1113 26.2969)" display="inline" font-family="'Helvetica-Bold'" font-size="3.812">.SVG</text>
	<rect x="-79.455" y="23.196" display="inline" width="7.601" height="7.544"/>
	<rect x="-79.427" y="20.938" display="inline" width="0.387" height="1.731"/>
	<rect x="-72.268" y="20.938" display="inline" width="0.387" height="1.731"/>
	<rect x="-79.815" y="21.361" display="inline" width="8.321" height="0.424"/>
	<g display="inline">
		<rect x="-47.818" y="22.477" width="7.633" height="7.523"/>
		<rect x="-42.636" y="18.672" width="2.45" height="2.416"/>
	</g>
	<rect x="-117.963" y="14.074" display="inline" stroke="#FFFFFF" stroke-miterlimit="10" width="22.222" height="22.222"/>
	<rect x="-86.852" y="14.074" display="inline" stroke="#FFFFFF" stroke-miterlimit="10" width="22.222" height="22.222"/>
	<rect x="-55" y="14.074" display="inline" stroke="#FFFFFF" stroke-miterlimit="10" width="22.222" height="22.222"/>
	<rect x="-22.407" y="14.074" display="inline" stroke="#FFFFFF" stroke-miterlimit="10" width="22.222" height="22.222"/>
</g>
<g id="Your_Icon">
	<g>
		<path d="M36.292,0c-2.898,0-5.704,0.376-8.406,1.019l1.277,0.836l5.033,0.71l2.324-0.516l4.352,0.531l0.871,1.163l-3.029-0.404
			l-3.1,1.291l0.892,2.313l3.198,1.454l0.429-2.928l3.032-0.194l4.324,4.129l1.226,1.615l0.581,1.032l-3.355,1.324l-5.07,2.298
			l-0.414,2.25L37.1,21.085l0.131,3.034l-1.016-0.009l-0.406-2.573l-1.922-0.628L28.36,21.2l-2.229,4.078l1.938,2.324l3.199-1.746
			l0.219,2.843l1.227,0.968l2.191,2.517l-0.108,3.178l4.047,0.951l2.968-2.13l1.355,0.451l4.977,1.987l6.985,2.62l1.454,3.49
			l4.974,2.422l1.136,4.27l-3.395,3.797l-4.001,4.195l-4.242,2.193l-4.364,2.908l-5.818,3.781l-3.223,3.279l-1.144-1.242
			l2.585-6.553l0.652-7.594l-5.565-5.057l0.037-4.256l1.456-1.745l1.708-5.056l-3.453-1.928l-2.33-3.782l-3.64-1.399l-5.707-3.074
			l-2.327-6.402l-1.163,3.2l-1.746-5.236l0.582-7.855l2.91-2.619l-0.873-1.746l2.035-3.2L17.7,5.167C7.112,11.504,0,23.052,0,36.291
			c0,20.042,16.248,36.292,36.293,36.292c20.041,0,36.292-16.25,36.292-36.292C72.584,16.247,56.333,0,36.292,0z"/>
	</g>
</g>
</svg>
