<?xml version="1.0" encoding="utf-8"?>
<!-- Generator: Adobe Illustrator 16.0.0, SVG Export Plug-In . SVG Version: 6.00 Build 0)  -->
<!DOCTYPE svg PUBLIC "-//W3C//DTD SVG 1.1//EN" "http://www.w3.org/Graphics/SVG/1.1/DTD/svg11.dtd">
<svg version="1.1" id="Layer_1" xmlns="http://www.w3.org/2000/svg" xmlns:xlink="http://www.w3.org/1999/xlink" x="0px" y="0px"
	 width="66.667px" height="61.21px" viewBox="0 0 66.667 61.21" enable-background="new 0 0 66.667 61.21" xml:space="preserve">
<path d="M66.115,54.648c-0.58,0.843-5.363,5.662-6.139,6.138c-0.832,0.516-1.953,0.613-2.631,0c-0.875-0.797-3.664-5.48-7.011-8.768
	c-3.919-3.856-10.187-8.485-14.027-12.272c-3.718-3.666-7.927-10.152-7.89-10.521c0.009-0.078,0.142-0.262,0.36-0.516l-3.869-3.868
	c-3.337-2.685-7.546-2.167-9.378-0.693c-1.141,0.911-1.352,2.957-0.911,4.639c0.325,1.262-4.612,5.698-4.612,5.698
	c-0.378,0.315-1.254,0.482-1.753,0l-7.891-7.89c-0.474-0.492-0.49-1.335,0-1.754l3.507-3.507c0.773-0.796,1.719-0.947,2.709-1.017
	c1.104-0.088,2.673-0.088,3.831-1.211c1.062-1.017,0.333-2.814,0.808-4.199c0.542-1.587,5.547-6.811,9.352-9.423
	c3.798-2.615,9.549-5.35,14.202-5.479c4.226-0.115,8.89,1.867,10.302,2.778c1.14,0.728,0.061,2.349-1.018,1.938
	c-2.761-1.079-6.592-0.423-8.984,0.656c-3.218,1.448-5.541,5.243-5.918,7.627c-0.289,1.833,0.105,5.479,1.893,7.453l3.017,3.016
	c0.235-0.201,0.413-0.341,0.49-0.386c0.605-0.325,6.355,4.717,9.644,7.89c3.185,3.069,8.943,9.916,12.275,13.151
	c3.621,3.504,8.846,7.346,9.643,7.888C66.902,52.552,66.799,53.675,66.115,54.648z"/>
</svg>
