<?xml version="1.0" encoding="utf-8"?>
<!-- Generator: Adobe Illustrator 16.0.0, SVG Export Plug-In . SVG Version: 6.00 Build 0)  -->
<!DOCTYPE svg PUBLIC "-//W3C//DTD SVG 1.1//EN" "http://www.w3.org/Graphics/SVG/1.1/DTD/svg11.dtd">
<svg version="1.1" id="Layer_1" xmlns="http://www.w3.org/2000/svg" xmlns:xlink="http://www.w3.org/1999/xlink" x="0px" y="0px"
	 width="66.074px" height="100px" viewBox="0 0 66.074 100" enable-background="new 0 0 66.074 100" xml:space="preserve">
<g id="Foreground">
	<path d="M17.581,20.856c0.01-0.639-0.068-1.288-0.234-1.95c-0.531-2.093-1.627-3.695-3.283-4.807
		c-1.658-1.107-3.631-1.392-5.521-0.914c-1.506,0.382-2.877,1.372-3.824,2.728c-0.952,1.357-1.251,3.186-1.12,4.879l5.661-1.434
		c0.705-0.178,1.387-0.252,1.837,0.392l1.161,1.497c0.423,0.532,0.955,0.713,1.604,0.549L17.581,20.856z"/>
	<path d="M9.848,20.621l-4.357,1.104l0.078,0.306c0.353,1.389,1.17,2.463,2.456,3.229c1.286,0.763,2.623,0.972,4.005,0.62
		c1.795-0.453,3.018-1.551,3.666-3.302l-1.628,0.412c-1.188,0.301-2.144,0.004-2.868-0.896l-1.082-1.362
		C10.042,20.632,9.95,20.596,9.848,20.621z"/>
	<path d="M23.305,60.346l4.172-11.913c0.456-1.924,0.097-3.914-0.255-4.796l-5.034-13.753c-0.991-2.707-4.197-4.725-7.13-3.626
		c-5.903,2.213-2.937,8.862-2.937,8.862l1.51,2.959H5.848c-1.518,0-2.749,1.23-2.749,2.749c0,1.518,1.231,2.749,2.749,2.749h4.536
		v-0.011h6.873c1.122,0,2.035-0.912,2.035-2.034v-5.147h1.427v5.147c0,1.91-1.551,3.463-3.462,3.463h-0.095l1.147,2.248
		l-2.29,11.821c-0.094,0.529-0.021,1.948,0.105,2.461l4.476,14.996c0.435,1.559,1.526,2.35,3.267,2.387
		c1.037,0.021,1.912-0.303,2.635-0.967c0.72-0.662,1.088-1.514,1.107-2.547c0.006-0.328-0.058-0.752-0.187-1.266L23.305,60.346z"/>
	<path d="M34.545,40.066l-5.84-15.975c-0.008-0.023-0.016-0.041-0.024-0.062c-0.001-0.005-0.003-0.011-0.007-0.017
		c-0.116-0.33-0.238-0.549-0.468-0.823c-0.56-0.67-1.306-1.123-2.335-1.077c-1.682,0.076-3.047,1.41-3.047,3.093
		c0,0.103,0.02,0.201,0.031,0.303c0,0.002,0,0.004,0,0.007c0.033,0.336,0.115,0.656,0.249,0.951l5.739,15.701
		c0.318,0.986,0.973,1.296,1.969,0.926l2.811-1.06C34.612,41.716,34.915,41.063,34.545,40.066z"/>
	<path d="M28.801,67.662l-0.077-0.012c-0.649-0.045-1.132-0.604-1.089-1.242c0.055-0.605,0.562-1.078,1.165-1.078
		c0.396,0.021,0.683,0.164,0.881,0.406c0.208,0.23,0.308,0.539,0.284,0.85C29.913,67.189,29.406,67.662,28.801,67.662L28.801,67.662
		z M29.077,64.176c-0.012,0-0.088,0-0.099-0.01c-0.31-0.023-0.594-0.166-0.793-0.396c-0.197-0.242-0.294-0.538-0.274-0.849
		c0.045-0.604,0.549-1.075,1.156-1.075c0.737,0.055,1.21,0.615,1.163,1.253C30.188,63.703,29.67,64.176,29.077,64.176L29.077,64.176
		z M29.34,60.689c-0.012,0-0.088,0-0.1,0c-0.308-0.02-0.582-0.163-0.792-0.406c-0.196-0.23-0.296-0.539-0.274-0.848
		c0.044-0.605,0.55-1.078,1.155-1.078c0.407,0.033,0.691,0.178,0.892,0.408c0.208,0.244,0.297,0.539,0.273,0.849
		C30.451,60.219,29.946,60.689,29.34,60.689L29.34,60.689z M29.604,57.205h-0.076c-0.65-0.055-1.133-0.613-1.089-1.254
		c0.054-0.604,0.56-1.078,1.163-1.078c0.396,0.033,0.682,0.177,0.88,0.406c0.21,0.243,0.308,0.539,0.288,0.848
		C30.715,56.732,30.208,57.205,29.604,57.205L29.604,57.205z M29.869,53.719c-0.013,0-0.079,0-0.09,0
		c-0.636-0.043-1.12-0.615-1.065-1.254c0.045-0.592,0.551-1.065,1.156-1.065c0.393,0.021,0.681,0.163,0.879,0.396
		c0.211,0.242,0.308,0.539,0.286,0.848C30.991,53.246,30.472,53.719,29.869,53.719L29.869,53.719z M30.133,50.244
		c0,0-0.077-0.011-0.09-0.011c-0.637-0.045-1.109-0.604-1.064-1.241c0.043-0.604,0.559-1.079,1.164-1.079
		c0.726,0.056,1.209,0.617,1.154,1.254C31.254,49.772,30.749,50.244,30.133,50.244L30.133,50.244z M30.407,46.758H30.33
		c-0.319-0.032-0.604-0.177-0.801-0.406c-0.21-0.243-0.31-0.538-0.288-0.846c0.055-0.604,0.562-1.077,1.166-1.077
		c0.736,0.054,1.211,0.616,1.166,1.253C31.529,46.286,31.012,46.758,30.407,46.758L30.407,46.758z"/>
	<path d="M34.893,79.967c-0.617,0-1.133-0.473-1.166-1.09c-0.021-0.307,0.088-0.615,0.287-0.846
		c0.208-0.232,0.494-0.375,0.801-0.387c0,0,0,0,0.012,0c0.683,0,1.188,0.475,1.224,1.088c0.019,0.309-0.079,0.605-0.288,0.836
		c-0.209,0.232-0.484,0.375-0.803,0.396L34.893,79.967L34.893,79.967z M34.663,76.48c-0.605,0-1.123-0.484-1.156-1.088
		c-0.021-0.318,0.088-0.617,0.286-0.848c0.21-0.232,0.495-0.373,0.803-0.385c0.011,0,0.011,0,0.011,0
		c0.683,0,1.188,0.473,1.232,1.088c0.012,0.311-0.088,0.604-0.297,0.834c-0.197,0.232-0.484,0.375-0.805,0.396
		C34.737,76.48,34.674,76.48,34.663,76.48L34.663,76.48z M34.454,72.994c-0.617,0-1.121-0.482-1.165-1.098
		c-0.034-0.639,0.45-1.188,1.089-1.232c0.012,0,0.012,0,0.012,0c0.683,0,1.188,0.486,1.232,1.09c0.02,0.318-0.09,0.615-0.299,0.848
		c-0.196,0.23-0.482,0.373-0.791,0.395C34.52,72.994,34.454,72.994,34.454,72.994L34.454,72.994z M34.245,69.51
		c-0.617,0-1.133-0.484-1.167-1.088c-0.021-0.32,0.077-0.617,0.286-0.848c0.21-0.232,0.494-0.377,0.803-0.396l0,0
		c0.693,0,1.199,0.482,1.232,1.088c0.045,0.639-0.451,1.199-1.09,1.244H34.245L34.245,69.51z M34.025,66.025
		c-0.617,0-1.123-0.486-1.167-1.1c-0.02-0.309,0.09-0.605,0.289-0.838c0.206-0.242,0.492-0.373,0.801-0.395
		c0.682-0.021,1.199,0.484,1.242,1.09c0.012,0.307-0.088,0.615-0.295,0.846c-0.211,0.232-0.496,0.375-0.803,0.385L34.025,66.025
		L34.025,66.025z M33.805,62.527c-0.615,0-1.123-0.473-1.166-1.09c-0.012-0.309,0.088-0.605,0.297-0.836
		c0.199-0.241,0.485-0.374,0.791-0.396c0.716-0.01,1.197,0.475,1.242,1.091c0.013,0.308-0.086,0.615-0.295,0.846
		c-0.198,0.231-0.483,0.374-0.791,0.386C33.872,62.527,33.805,62.527,33.805,62.527L33.805,62.527z M33.584,59.041
		c-0.615,0-1.123-0.475-1.154-1.09c-0.023-0.309,0.078-0.604,0.285-0.846c0.208-0.23,0.494-0.375,0.803-0.387l0,0
		c0.693,0,1.197,0.473,1.232,1.09c0.02,0.307-0.078,0.604-0.289,0.836c-0.207,0.24-0.494,0.373-0.801,0.395
		C33.651,59.041,33.594,59.041,33.584,59.041L33.584,59.041z M33.377,55.554c-0.617,0-1.125-0.472-1.168-1.09
		c-0.044-0.636,0.453-1.196,1.09-1.229c0,0,0,0,0.01,0c0.684,0,1.188,0.473,1.222,1.089c0.021,0.31-0.077,0.606-0.285,0.849
		c-0.209,0.23-0.494,0.362-0.804,0.383L33.377,55.554L33.377,55.554z M33.157,52.07c-0.617,0-1.123-0.473-1.166-1.09
		c-0.033-0.65,0.451-1.2,1.089-1.243c0.013,0,0.013,0,0.013,0c0.681,0,1.187,0.484,1.23,1.098c0.033,0.64-0.45,1.189-1.09,1.234
		C33.221,52.07,33.157,52.07,33.157,52.07L33.157,52.07z"/>
	<path d="M49.497,71.742c-0.396,0-0.76-0.199-0.979-0.527c-0.178-0.266-0.232-0.572-0.166-0.881
		c0.064-0.297,0.242-0.561,0.506-0.725c0.528-0.342,1.274-0.178,1.618,0.338c0.165,0.266,0.22,0.574,0.153,0.881
		c-0.055,0.297-0.242,0.561-0.497,0.725C49.948,71.686,49.727,71.742,49.497,71.742L49.497,71.742z M47.594,68.816
		c-0.396,0-0.77-0.199-0.979-0.527c-0.354-0.541-0.198-1.264,0.34-1.617c0.529-0.342,1.277-0.176,1.606,0.342
		c0.175,0.264,0.231,0.572,0.165,0.881c-0.068,0.305-0.242,0.559-0.506,0.734C48.034,68.75,47.814,68.816,47.594,68.816
		L47.594,68.816z M45.691,65.891c-0.405,0-0.768-0.197-0.978-0.529c-0.352-0.549-0.199-1.26,0.34-1.613
		c0.518-0.34,1.266-0.177,1.606,0.34c0.353,0.539,0.198,1.264-0.341,1.617C46.131,65.824,45.909,65.891,45.691,65.891L45.691,65.891
		z M43.778,62.955c-0.396,0-0.758-0.197-0.979-0.527c-0.164-0.265-0.221-0.571-0.154-0.869c0.056-0.307,0.242-0.572,0.496-0.748
		c0.525-0.341,1.273-0.178,1.615,0.353c0.167,0.253,0.231,0.571,0.167,0.87c-0.067,0.307-0.243,0.57-0.509,0.736
		C44.229,62.889,44.009,62.955,43.778,62.955L43.778,62.955z M41.875,60.031c-0.395,0-0.756-0.198-0.979-0.529
		c-0.164-0.262-0.23-0.571-0.164-0.879c0.066-0.309,0.239-0.562,0.504-0.738c0.519-0.34,1.277-0.174,1.619,0.342
		c0.164,0.264,0.219,0.572,0.164,0.882c-0.065,0.306-0.253,0.56-0.506,0.735C42.316,59.965,42.095,60.031,41.875,60.031
		L41.875,60.031z M39.973,57.107c-0.395,0-0.77-0.21-0.979-0.541c-0.176-0.253-0.23-0.57-0.164-0.869
		c0.065-0.307,0.242-0.571,0.506-0.736c0.527-0.34,1.275-0.174,1.605,0.342c0.178,0.252,0.232,0.572,0.165,0.869
		c-0.065,0.307-0.243,0.57-0.508,0.736C40.413,57.041,40.193,57.107,39.973,57.107L39.973,57.107z M38.071,54.17
		c-0.396,0-0.771-0.197-0.98-0.527c-0.175-0.264-0.229-0.572-0.162-0.881c0.065-0.307,0.24-0.559,0.506-0.736
		c0.516-0.328,1.264-0.176,1.605,0.354c0.175,0.251,0.229,0.561,0.163,0.868s-0.239,0.571-0.505,0.736
		C38.51,54.104,38.29,54.17,38.071,54.17L38.071,54.17z M36.157,51.244c-0.395,0-0.758-0.197-0.977-0.527
		c-0.168-0.263-0.221-0.571-0.155-0.879c0.056-0.308,0.241-0.561,0.494-0.738c0.53-0.34,1.275-0.174,1.618,0.341
		c0.163,0.265,0.231,0.571,0.163,0.88c-0.064,0.309-0.241,0.56-0.506,0.736C36.608,51.18,36.389,51.244,36.157,51.244L36.157,51.244
		z M34.255,48.319c-0.397,0-0.759-0.207-0.979-0.537c-0.34-0.539-0.198-1.254,0.342-1.605c0.527-0.341,1.276-0.176,1.617,0.339
		c0.165,0.252,0.23,0.572,0.165,0.87c-0.067,0.308-0.253,0.571-0.506,0.737C34.696,48.254,34.476,48.319,34.255,48.319
		L34.255,48.319z"/>
	<path d="M50.872,64.131c-0.353,0-0.682-0.152-0.901-0.428c-0.2-0.23-0.286-0.539-0.255-0.846c0.033-0.31,0.187-0.594,0.418-0.793
		c0.484-0.386,1.254-0.307,1.639,0.166c0.198,0.242,0.297,0.55,0.265,0.857c-0.034,0.307-0.177,0.594-0.419,0.779
		C51.408,64.047,51.145,64.131,50.872,64.131L50.872,64.131z M48.659,61.428c-0.351,0-0.67-0.154-0.9-0.428
		c-0.406-0.496-0.33-1.232,0.165-1.641c0.483-0.384,1.253-0.307,1.638,0.166c0.409,0.506,0.341,1.232-0.153,1.639
		C49.2,61.34,48.936,61.428,48.659,61.428L48.659,61.428z M46.45,58.723c-0.352,0-0.67-0.153-0.9-0.428
		c-0.41-0.494-0.33-1.232,0.163-1.639c0.485-0.386,1.253-0.309,1.64,0.164c0.198,0.242,0.295,0.551,0.264,0.859
		c-0.033,0.307-0.188,0.592-0.429,0.79C46.978,58.633,46.724,58.723,46.45,58.723L46.45,58.723z M44.241,56.018
		c-0.342,0-0.672-0.154-0.903-0.418c-0.196-0.252-0.285-0.55-0.252-0.868c0.034-0.308,0.187-0.583,0.419-0.782
		c0.484-0.385,1.252-0.308,1.637,0.166c0.408,0.506,0.344,1.232-0.163,1.639C44.768,55.93,44.514,56.018,44.241,56.018
		L44.241,56.018z M42.03,53.312c-0.352,0-0.682-0.154-0.902-0.429c-0.406-0.495-0.328-1.232,0.164-1.64
		c0.485-0.383,1.255-0.308,1.641,0.166c0.197,0.241,0.283,0.551,0.264,0.858c-0.035,0.307-0.188,0.582-0.43,0.781
		C42.557,53.225,42.305,53.312,42.03,53.312L42.03,53.312z M39.82,50.605c-0.353,0-0.683-0.153-0.901-0.427
		c-0.2-0.242-0.287-0.54-0.255-0.848c0.036-0.308,0.177-0.594,0.419-0.792c0.484-0.384,1.254-0.308,1.64,0.166
		c0.406,0.506,0.341,1.232-0.165,1.636C40.346,50.519,40.093,50.605,39.82,50.605L39.82,50.605z M37.61,47.902
		c-0.353,0-0.682-0.153-0.902-0.429c-0.199-0.242-0.286-0.539-0.253-0.847c0.021-0.308,0.177-0.594,0.419-0.791
		c0.482-0.386,1.242-0.308,1.639,0.165c0.197,0.242,0.285,0.551,0.262,0.857c-0.031,0.308-0.188,0.583-0.43,0.781
		C38.137,47.813,37.874,47.902,37.61,47.902L37.61,47.902z M35.399,45.197c-0.352,0-0.682-0.154-0.902-0.43
		c-0.406-0.495-0.328-1.232,0.166-1.638c0.484-0.396,1.252-0.308,1.638,0.165c0.199,0.242,0.286,0.55,0.265,0.858
		c-0.035,0.308-0.187,0.583-0.429,0.781C35.926,45.11,35.664,45.197,35.399,45.197L35.399,45.197z"/>
	<path d="M47.132,87.037c-0.495,0-0.935-0.318-1.101-0.781c-0.219-0.604,0.1-1.277,0.707-1.484c0.591-0.219,1.283,0.121,1.482,0.703
		c0.219,0.605-0.1,1.277-0.703,1.486C47.383,87.016,47.251,87.037,47.132,87.037L47.132,87.037z M45.966,83.738
		c-0.495,0-0.935-0.318-1.099-0.781c-0.219-0.605,0.099-1.266,0.703-1.484c0.595-0.209,1.276,0.123,1.485,0.715
		c0.22,0.605-0.1,1.264-0.704,1.486C46.219,83.719,46.098,83.738,45.966,83.738L45.966,83.738z M44.8,80.439
		c-0.495,0-0.935-0.307-1.101-0.77c-0.219-0.605,0.1-1.275,0.703-1.486c0.607-0.217,1.277,0.123,1.486,0.705
		c0.221,0.605-0.098,1.277-0.705,1.484C45.053,80.418,44.934,80.439,44.8,80.439L44.8,80.439z M43.635,77.152
		c-0.494,0-0.935-0.309-1.1-0.781c-0.22-0.605,0.1-1.266,0.704-1.486c0.604-0.207,1.286,0.121,1.483,0.705
		c0.221,0.615-0.098,1.275-0.703,1.494C43.889,77.129,43.756,77.152,43.635,77.152L43.635,77.152z M42.469,73.854
		c-0.494,0-0.934-0.309-1.098-0.77c-0.111-0.299-0.09-0.617,0.043-0.893c0.133-0.285,0.374-0.494,0.659-0.594
		c0.595-0.219,1.276,0.111,1.487,0.705c0.219,0.604-0.101,1.273-0.705,1.484C42.723,73.832,42.589,73.854,42.469,73.854
		L42.469,73.854z M41.305,70.566c-0.496,0-0.936-0.32-1.1-0.783c-0.111-0.297-0.086-0.604,0.044-0.891
		c0.13-0.275,0.374-0.492,0.659-0.594c0.594-0.219,1.285,0.123,1.484,0.715c0.221,0.596-0.099,1.266-0.703,1.484
		C41.556,70.543,41.426,70.566,41.305,70.566L41.305,70.566z M40.138,67.266c-0.495,0-0.935-0.307-1.099-0.77
		c-0.221-0.604,0.099-1.275,0.703-1.494c0.594-0.211,1.288,0.119,1.484,0.715c0.221,0.605-0.099,1.275-0.703,1.482
		C40.403,67.242,40.271,67.266,40.138,67.266L40.138,67.266z M38.973,63.979c-0.496,0-0.936-0.32-1.1-0.781
		c-0.221-0.604,0.098-1.275,0.703-1.484c0.593-0.211,1.275,0.119,1.485,0.703c0.218,0.604-0.101,1.275-0.704,1.496
		C39.237,63.957,39.104,63.979,38.973,63.979L38.973,63.979z M37.808,60.68c-0.495,0-0.935-0.309-1.1-0.782
		c-0.22-0.603,0.099-1.265,0.702-1.483c0.605-0.21,1.277,0.12,1.494,0.713c0.211,0.605-0.107,1.267-0.712,1.486
		C38.071,60.66,37.939,60.68,37.808,60.68L37.808,60.68z M36.641,57.391c-0.496,0-0.935-0.318-1.1-0.779
		c-0.219-0.604,0.1-1.277,0.703-1.485c0.605-0.22,1.289,0.121,1.498,0.704c0.207,0.604-0.113,1.277-0.718,1.494
		C36.906,57.369,36.773,57.391,36.641,57.391L36.641,57.391z"/>
</g>
</svg>
