<?xml version="1.0" encoding="utf-8"?>
<!-- Generator: Adobe Illustrator 16.0.0, SVG Export Plug-In . SVG Version: 6.00 Build 0)  -->
<!DOCTYPE svg PUBLIC "-//W3C//DTD SVG 1.1//EN" "http://www.w3.org/Graphics/SVG/1.1/DTD/svg11.dtd">
<svg version="1.1" id="Layer_1" xmlns="http://www.w3.org/2000/svg" xmlns:xlink="http://www.w3.org/1999/xlink" x="0px" y="0px"
	 width="63.717px" height="62.974px" viewBox="19.432 2.37 63.717 62.974" enable-background="new 19.432 2.37 63.717 62.974"
	 xml:space="preserve">
<path d="M60.48,2.37c-12.519,0-22.667,10.148-22.667,22.667c0,5.333,1.852,10.222,4.963,14.074
	c-0.222,0.222-0.444,0.444-0.667,0.667l-0.445,0.444c-0.444,0.444-0.814,0.815-1.111,1.259c-1.111-0.444-2.296,0.148-3.259,1.185
	l-16.519,15.63c-1.333,1.333-1.926,2.89-0.593,4.222l2.074,2.074c1.333,1.333,2.889,0.741,4.222-0.593l15.704-16.444
	c1.037-1.037,1.63-2.222,1.186-3.259c0.444-0.296,0.814-0.667,1.259-1.111l0.37-0.37c0.222-0.222,0.371-0.371,0.593-0.593
	c4,3.481,9.185,5.63,14.89,5.63C73,47.778,83.148,37.556,83.148,25.037C83.148,12.593,73,2.37,60.48,2.37z M60.48,40.37
	c-8.443,0-15.258-6.889-15.258-15.333c0-8.444,6.815-15.259,15.258-15.259c8.444,0,15.26,6.889,15.26,15.259
	S68.926,40.37,60.48,40.37z"/>
</svg>
