<?xml version="1.0" encoding="utf-8"?>
<!-- Generator: Adobe Illustrator 16.0.0, SVG Export Plug-In . SVG Version: 6.00 Build 0)  -->
<!DOCTYPE svg PUBLIC "-//W3C//DTD SVG 1.1//EN" "http://www.w3.org/Graphics/SVG/1.1/DTD/svg11.dtd">
<svg version="1.1" id="Layer_1" xmlns="http://www.w3.org/2000/svg" xmlns:xlink="http://www.w3.org/1999/xlink" x="0px" y="0px"
	 width="60.266px" height="72.466px" viewBox="21.4 -1.853 60.266 72.466" enable-background="new 21.4 -1.853 60.266 72.466"
	 xml:space="preserve">
<g id="Captions">
</g>
<g id="Your_Icon">
	<g>
		<path d="M66.963,38.619c6.402-7.003,9.98-13.734,11.948-19.602c0,0.018,0,0.018,0.006,0.03c0,0,0.792-2.066,1.413-5.318
			c0.047-0.216,0.077-0.414,0.118-0.632c0.046-0.273,0.095-0.553,0.136-0.839c0.764-4.735,0.51-8.478,0.178-10.683
			c0.105-0.1,0.219-0.224,0.324-0.367c0.391-0.491,0.557-0.999,0.385-1.135l-0.207-0.157l0.402-1.769L79.75-1.246l-0.254-0.189
			c-0.178-0.13-0.627,0.166-1.01,0.656c-0.078,0.106-0.148,0.208-0.209,0.308c0,0-7.016,0.218-15.135,5.374h0.014
			c-11.352,7-16.719,18.007-16.719,18.007C25.964,20.162,21.4,39.222,21.4,39.222c39.907-2.341,34.614,27.81,34.614,27.81
			C73.479,59.369,66.963,38.619,66.963,38.619z M65.645,28.166c-1.809,1.993-4.858,2.516-7.324,1.094
			c-2.825-1.625-3.812-5.178-2.205-7.933c0.195-0.343,0.426-0.647,0.68-0.928c1.805-1.993,4.854-2.513,7.325-1.094
			c2.819,1.62,3.813,5.175,2.206,7.934C66.123,27.581,65.893,27.888,65.645,28.166z"/>
		<path d="M37.185,69.506c9.849-3.576,13.432-16.58,13.432-16.58C40.152,57.613,37.185,69.506,37.185,69.506z"/>
		<path d="M26.708,70.613C39.762,65.795,44.45,48.095,44.45,48.095C30.593,54.415,26.708,70.613,26.708,70.613z"/>
		<path d="M24.846,59.837c9.85-3.571,13.433-16.572,13.433-16.572C27.82,47.945,24.846,59.837,24.846,59.837z"/>
	</g>
</g>
</svg>
